<svg version="1.0" xmlns="http://www.w3.org/2000/svg" width="600.000000pt" height="314.000000pt" viewBox="0 0 600.000000 314.000000" preserveAspectRatio="xMidYMid meet" style="width: 1158px; height: auto;"> <g transform="translate(0.000000,314.000000) scale(0.100000,-0.100000)" fill="#000000" stroke="none"> <path d="M5203 2978 c-6 -7 -10 -53 -11 -103 0 -49 -5 -160 -11 -245 -6 -85 -10 -184 -10 -220 0 -36 -7 -153 -15 -260 -9 -107 -18 -240 -21 -295 -3 -55 -7 -111 -10 -124 -2 -13 -7 -73 -11 -135 -4 -61 -8 -114 -11 -119 -2 -4 -8 -52 -12 -107 -4 -55 -10 -102 -12 -105 -7 -6 -138 -9 -145 -3 -3 3 -2 16 1 29 4 17 14 24 33 26 l27 1 -30 -24 c-30 -24 -20 -33 16 -13 21 11 36 40 50 98 8 35 -15 205 -31 226 -4 6 -13 28 -20 50 -7 22 -21 54 -31 71 -11 17 -19 38 -19 47 0 8 -7 17 -15 21 -30 11 -14 24 63 51 76 27 102 41 102 54 0 4 -18 17 -40 30 -78 44 -110 117 -115 266 l-2 70 -37 2 c-20 0 -47 8 -61 17 -13 9 -28 16 -33 16 -4 0 -66 -54 -138 -120 -103 -95 -135 -120 -158 -120 -25 0 -70 -10 -126 -27 -10 -3 -5 -9 15 -17 17 -7 51 -30 78 -50 26 -20 51 -36 55 -36 4 0 23 -13 42 -28 60 -49 103 -70 157 -77 l52 -7 -29 -28 c-32 -32 -65 -90 -51 -90 6 0 15 9 21 21 14 25 50 62 56 56 2 -2 -3 -17 -11 -34 -12 -24 -12 -35 -3 -61 7 -18 16 -32 20 -32 4 0 8 -5 8 -11 0 -8 -4 -9 -13 0 -8 6 -17 8 -20 4 -4 -3 -7 6 -7 20 0 15 -4 27 -10 27 -12 0 -12 -11 -1 -67 5 -24 5 -43 1 -43 -4 0 -11 16 -14 35 -4 19 -11 35 -17 35 -9 0 -5 -30 12 -84 5 -16 7 -32 4 -35 -8 -8 -25 20 -26 44 l0 20 -8 -20 c-5 -11 -5 -28 0 -37 15 -28 10 -30 -17 -9 -22 17 -30 19 -42 9 -12 -10 -10 -14 12 -21 16 -5 26 -16 26 -28 0 -10 5 -19 10 -19 6 0 10 7 10 15 0 8 5 15 10 15 12 0 12 0 -1 -39 -6 -17 -15 -31 -21 -31 -5 0 -6 5 -3 11 10 15 -32 52 -48 42 -6 -4 -16 -8 -22 -8 -21 -2 -47 -19 -92 -61 -47 -42 -48 -44 -48 -104 0 -51 2 -60 18 -60 16 0 37 -35 37 -64 0 -7 -15 -17 -32 -23 -24 -7 -32 -14 -30 -27 3 -15 -1 -17 -17 -13 -29 7 -33 -5 -16 -40 8 -16 16 -40 19 -54 2 -13 9 -23 15 -21 18 4 13 -6 -35 -74 -31 -43 -53 -64 -67 -65 -12 -1 -43 -1 -69 -2 -47 -1 -48 -1 -48 -33 0 -45 17 -86 34 -82 8 2 15 0 16 -5 1 -13 -31 -71 -53 -95 -27 -29 -14 -54 31 -59 36 -5 60 14 86 65 9 18 40 68 67 110 28 42 55 86 60 97 5 11 40 70 79 130 39 61 75 122 82 137 l12 27 110 -3 c61 -2 139 -1 173 3 34 4 72 3 84 -1 13 -5 27 -4 32 1 14 14 40 -15 43 -48 1 -14 -2 -51 -7 -81 -4 -30 -10 -89 -13 -130 -3 -41 -10 -124 -15 -184 -6 -61 -8 -112 -5 -115 3 -3 12 -6 20 -6 7 0 14 -4 15 -10 1 -18 22 -36 35 -31 7 3 16 1 19 -3 7 -13 204 -3 248 13 56 19 67 41 62 120 -4 65 4 82 30 57 14 -14 44 -16 97 -7 58 9 57 3 63 254 2 106 7 197 10 202 4 6 -3 10 -13 10 -31 0 -36 35 -16 102 3 9 0 19 -6 23 -5 3 -10 -1 -10 -9 0 -9 -4 -16 -9 -16 -9 0 11 79 25 102 5 8 2 9 -9 5 -21 -8 -21 -5 -2 40 8 19 15 47 15 61 0 78 -63 -109 -66 -195 -2 -62 6 -78 24 -48 5 10 8 1 7 -27 -1 -40 -3 -43 -26 -40 -46 7 -50 19 -50 166 1 88 -3 135 -9 131 -6 -3 -10 -17 -10 -31 0 -13 -5 -24 -11 -24 -6 0 -8 9 -3 23 4 12 7 35 5 52 -2 28 -1 29 13 10 19 -25 18 -33 21 165 4 216 14 495 20 545 2 22 7 96 10 165 3 69 8 185 12 259 4 98 2 132 -6 127 -6 -4 -11 -24 -11 -44 -1 -31 -2 -34 -11 -19 -7 13 -7 27 0 49 14 41 14 43 -6 27 -15 -12 -16 -12 -10 4 4 11 10 30 13 43 9 34 22 30 20 -6 0 -16 4 -28 9 -27 15 3 13 129 -2 135 -8 2 -13 -6 -13 -22 0 -14 -4 -26 -9 -26 -5 0 -11 -10 -14 -22 -4 -12 -9 -19 -12 -16 -4 3 -1 16 5 28 13 25 4 42 -10 20 -8 -12 -10 -12 -10 4 0 30 -9 14 -15 -27 -7 -42 2 -67 16 -46 7 12 9 12 9 0 0 -8 -7 -19 -17 -26 -9 -7 -17 -27 -18 -49 -1 -39 9 -49 18 -16 3 11 10 20 16 20 12 0 8 -15 -26 -88 -18 -40 -21 -57 -13 -67 8 -9 7 -24 -3 -54 -10 -27 -11 -41 -4 -44 7 -2 6 -19 -3 -51 -8 -31 -10 -50 -3 -57 6 -6 14 10 22 46 7 30 16 55 21 55 5 0 8 -6 5 -12 -21 -65 -55 -181 -55 -189 0 -6 5 -7 10 -4 12 8 13 11 -4 -52 -8 -29 -10 -53 -5 -53 5 0 9 6 9 14 0 8 5 18 11 21 14 9 27 -4 13 -13 -22 -15 -42 -86 -31 -110 7 -15 7 -33 0 -57 -7 -21 -7 -37 -2 -41 16 -10 9 -24 -12 -24 -19 0 -20 5 -18 108 2 59 6 114 11 123 4 9 5 19 1 23 -12 12 3 523 18 613 1 4 1 27 0 51 -1 29 -5 42 -15 42 -11 0 -14 -27 -15 -136 -1 -75 -4 -140 -7 -145 -3 -6 -8 -143 -10 -307 -2 -163 -6 -355 -9 -427 -10 -304 -17 -476 -20 -492 -2 -10 -4 -62 -4 -116 -1 -77 -4 -99 -16 -103 -22 -9 -67 5 -59 17 3 6 12 8 20 5 8 -3 14 0 14 7 0 15 17 376 25 550 5 83 3 117 -4 112 -6 -3 -11 -2 -11 4 0 5 5 13 10 16 6 3 10 13 10 21 0 8 -4 14 -10 14 -5 0 -10 -9 -10 -19 0 -10 -7 -21 -15 -25 -22 -8 -19 17 5 47 27 35 39 124 17 132 -9 4 -13 14 -10 26 5 16 8 18 14 7 5 -7 9 -8 9 -3 0 20 -17 38 -24 26 -4 -6 -12 -9 -17 -5 -6 4 -6 11 1 19 7 9 9 27 5 45 -6 26 -4 32 14 37 21 5 37 36 26 52 -3 6 3 14 12 20 17 10 17 10 -1 11 -15 0 -17 5 -12 30 7 36 1 38 -24 8 -30 -38 -35 -11 -5 28 20 26 29 50 30 80 1 41 0 43 -22 38 -29 -8 -29 3 3 60 25 45 22 66 -4 25 -7 -12 -16 -19 -18 -16 -7 7 7 57 15 53 4 -3 13 5 20 16 12 19 11 20 -13 14 -24 -6 -25 -4 -22 31 1 27 7 39 19 41 20 4 23 22 4 22 -8 0 -13 15 -14 41 -2 35 0 39 18 34 10 -4 19 -2 19 4 0 5 -9 12 -19 16 -21 6 -32 51 -19 84 5 16 3 23 -8 28 -8 3 -17 4 -19 2 -4 -4 -14 -489 -20 -1012 -3 -186 -7 -342 -9 -346 -3 -4 -8 -76 -11 -161 -4 -85 -10 -173 -14 -195 -6 -36 -10 -40 -43 -46 -20 -3 -51 -4 -68 -1 l-30 4 6 82 c9 107 18 114 12 9 -4 -65 -2 -83 9 -83 9 0 14 15 15 48 3 85 4 96 11 157 22 173 30 264 43 495 6 121 16 183 26 168 7 -11 1 -234 -7 -248 -2 -3 -6 -53 -9 -110 -4 -58 -9 -130 -11 -160 -3 -30 -8 -84 -11 -120 -4 -36 -7 -81 -9 -100 -1 -19 -6 -56 -10 -82 -11 -70 10 -61 23 10 6 31 14 104 16 162 13 246 18 318 27 370 6 30 12 152 15 270 2 118 7 225 9 238 3 12 1 22 -4 22 -13 0 -21 -54 -21 -147 0 -80 -1 -84 -20 -78 -16 5 -20 2 -20 -17 -1 -68 -13 -238 -20 -273 -15 -75 -11 131 5 270 8 72 15 156 15 188 0 31 4 57 8 57 4 0 6 -46 4 -101 -3 -72 -1 -100 7 -95 6 4 10 24 9 44 -1 20 -1 71 1 112 3 94 0 171 -6 148 -2 -10 -8 -18 -12 -18 -7 0 -6 38 4 190 3 47 7 135 10 195 3 61 7 122 10 138 5 28 -6 36 -22 15z m326 -334 c-18 -22 -21 -11 -7 27 11 30 13 31 16 11 2 -13 -2 -30 -9 -38z m-34 7 c-3 -6 -11 -11 -17 -11 -6 0 -6 6 2 15 14 17 26 13 15 -4z m0 -76 c-8 -21 -18 -36 -21 -33 -3 3 2 23 11 43 8 21 18 36 21 33 3 -3 -2 -23 -11 -43z m31 -21 c-4 -9 -9 -15 -11 -12 -3 3 -3 13 1 22 4 9 9 15 11 12 3 -3 3 -13 -1 -22z m-5 -87 c-8 -8 -11 -2 -11 19 0 40 14 54 18 19 2 -15 -1 -32 -7 -38z m-190 -20 c-17 -17 -24 -1 -10 25 12 21 14 21 17 4 2 -10 -1 -23 -7 -29z m199 -31 c0 -14 -4 -28 -10 -31 -6 -4 -10 7 -10 24 0 17 5 31 10 31 6 0 10 -11 10 -24z m-324 -53 c-10 -10 -19 5 -10 18 6 11 8 11 12 0 2 -7 1 -15 -2 -18z m294 -25 c0 -7 -5 -20 -10 -28 -8 -13 -10 -12 -10 3 0 10 -4 15 -10 12 -11 -7 -14 8 -3 18 11 12 33 8 33 -5z m-150 -5 c-1 -16 -29 -45 -40 -41 -6 2 -5 11 5 26 16 21 35 30 35 15z m170 -58 c0 -14 -4 -25 -10 -25 -11 0 -14 33 -3 43 11 11 13 8 13 -18z m-695 -25 c9 -10 15 -26 12 -34 -4 -9 -2 -18 3 -21 6 -4 10 3 10 15 0 12 4 18 10 15 6 -4 8 -15 5 -26 -4 -12 -1 -21 8 -25 10 -3 15 -24 16 -64 1 -49 -1 -59 -13 -54 -13 5 -15 -5 -12 -58 4 -70 22 -138 37 -138 13 0 11 12 -6 53 -8 20 -15 53 -14 74 1 37 1 37 22 -24 12 -34 25 -65 30 -69 12 -13 8 -44 -7 -44 -8 0 -21 -2 -28 -5 -10 -4 -18 7 -27 37 -7 24 -17 52 -21 63 -4 12 -5 53 -2 93 4 56 8 72 18 68 8 -3 14 1 14 9 0 8 -6 14 -12 13 -8 -2 -12 6 -10 19 2 12 -2 24 -8 28 -5 3 -10 0 -10 -7 -1 -34 -11 -156 -15 -181 -3 -15 -1 -36 4 -45 5 -9 13 -36 18 -58 l10 -42 -68 2 c-37 0 -71 5 -76 9 -9 10 -8 145 2 184 5 22 4 25 -8 15 -8 -7 -17 -39 -21 -73 -9 -90 -30 -120 -27 -39 1 27 -1 31 -8 20 -6 -8 -11 -27 -11 -41 0 -14 -3 -29 -7 -32 -12 -12 -41 23 -36 44 3 10 0 19 -6 19 -6 0 -11 -7 -11 -15 0 -13 -4 -14 -22 -3 -20 10 -21 13 -5 16 9 2 17 8 17 13 0 5 -5 8 -11 6 -6 -1 -13 3 -15 8 -2 6 8 11 22 11 18 2 24 -2 20 -12 -3 -8 -1 -14 3 -14 11 0 21 25 21 55 0 13 5 27 12 31 8 5 9 -2 4 -27 -16 -83 -19 -112 -9 -106 12 8 21 49 29 135 4 51 3 61 -9 56 -9 -3 -13 -13 -10 -25 4 -13 0 -19 -11 -19 -10 0 -16 -9 -16 -25 0 -20 -5 -25 -24 -25 -14 0 -28 5 -31 10 -13 21 -27 -3 -22 -37 4 -24 2 -33 -6 -30 -7 2 -11 18 -9 36 1 17 -2 31 -8 31 -5 0 -10 -6 -10 -14 0 -8 -5 -18 -10 -21 -7 -4 -9 2 -4 19 4 16 2 26 -5 26 -6 0 -11 -4 -11 -10 0 -5 -9 -10 -20 -10 -11 0 -20 4 -20 9 0 9 48 21 89 21 17 0 42 15 71 43 139 130 203 187 214 187 7 0 21 -9 31 -20z m690 -42 c-7 -33 -25 -62 -25 -41 0 15 21 73 27 73 2 0 2 -15 -2 -32z m-623 -10 c-8 -8 -9 -4 -5 13 4 13 8 18 11 10 2 -7 -1 -18 -6 -23z m588 -62 c0 -8 -7 -16 -15 -20 -15 -5 -21 14 -8 27 11 12 23 8 23 -7z m-560 -26 c0 -5 -4 -10 -10 -10 -5 0 -10 5 -10 10 0 6 5 10 10 10 6 0 10 -4 10 -10z m396 -37 c-10 -10 -19 5 -10 18 6 11 8 11 12 0 2 -7 1 -15 -2 -18z m183 10 c0 -11 -3 -13 -6 -5 -2 6 -10 9 -15 6 -7 -4 -8 -2 -4 4 11 18 26 14 25 -5z m-571 -68 c7 -31 18 -63 27 -71 8 -9 15 -30 15 -47 l0 -32 -20 30 c-11 17 -20 38 -20 48 0 9 -4 17 -8 17 -4 0 -8 8 -8 18 0 9 -4 34 -8 55 -4 21 -3 37 2 37 5 0 14 -25 20 -55z m403 22 c-16 -16 -26 0 -10 19 9 11 15 12 17 4 2 -6 -1 -17 -7 -23z m143 1 c-8 -27 -12 -33 -19 -27 -7 8 7 49 17 49 5 0 6 -10 2 -22z m36 -49 c0 -5 -4 -9 -10 -9 -5 0 -10 7 -10 16 0 8 5 12 10 9 6 -3 10 -10 10 -16z m-69 -46 c0 -19 3 -23 7 -13 8 17 32 25 32 10 0 -5 -8 -17 -19 -27 -10 -10 -22 -37 -26 -60 -3 -23 -12 -47 -19 -52 -10 -9 -12 2 -9 52 3 57 9 108 12 115 0 1 6 2 11 2 6 0 10 -12 11 -27z m-431 -43 c0 -11 -4 -20 -8 -20 -4 0 -8 9 -9 20 -1 11 2 20 8 20 5 0 9 -9 9 -20z m309 -46 c-18 -22 -22 -11 -7 22 10 21 14 24 16 10 2 -9 -2 -24 -9 -32z m-623 -1 c-2 -2 -11 0 -20 3 -14 5 -15 9 -5 15 12 7 34 -10 25 -18z m786 -5 c-8 -8 -9 -4 -5 13 4 13 8 18 11 10 2 -7 -1 -18 -6 -23z m-20 -40 c-15 -15 -26 -4 -18 18 5 13 9 15 18 6 9 -9 9 -15 0 -24z m-636 -3 c-26 -19 -42 -19 -26 0 7 8 20 15 29 15 13 -1 13 -3 -3 -15z m504 -9 c0 -7 -7 -19 -15 -26 -12 -10 -15 -9 -15 7 0 11 3 23 7 26 11 12 23 8 23 -7z m-437 -65 c9 -35 17 -50 22 -41 5 8 12 0 21 -26 16 -47 17 -54 4 -54 -5 0 -10 11 -10 24 0 14 -5 28 -11 32 -9 5 -10 -3 -5 -30 6 -29 4 -36 -9 -36 -10 0 -16 7 -14 18 4 48 -1 74 -16 68 -9 -3 -15 0 -15 10 0 9 5 12 11 8 9 -5 10 1 4 22 -15 59 -17 79 -6 69 6 -6 16 -34 24 -64z m600 6 c3 -37 0 -57 -7 -57 -7 0 -10 21 -8 61 5 74 10 72 15 -4z m-665 31 c-1 -7 4 -36 11 -64 6 -28 11 -55 10 -60 -4 -23 2 -45 11 -39 6 4 8 15 5 26 -4 11 -2 19 4 19 7 0 10 -24 9 -62 0 -35 -3 -48 -5 -30 -2 17 -9 32 -15 32 -7 0 -9 -17 -6 -45 3 -25 2 -48 -3 -51 -5 -3 -9 -17 -9 -32 0 -15 -5 -34 -10 -42 -7 -10 -8 1 -3 34 4 32 3 47 -4 43 -5 -3 -10 -25 -11 -48 -2 -34 -17 -77 -50 -141 -2 -5 1 -8 8 -8 6 0 19 18 29 41 10 22 22 36 25 30 4 -6 -3 -29 -14 -52 -12 -22 -19 -43 -16 -46 3 -3 13 11 22 31 23 47 39 47 19 -1 -9 -20 -17 -39 -19 -41 -2 -2 -44 -6 -92 -9 l-89 -5 -35 38 c-19 21 -37 51 -40 66 -3 18 -9 25 -17 20 -15 -10 -1 -68 16 -64 6 1 11 -2 11 -8 0 -5 9 -19 20 -30 l20 -20 -23 0 c-23 0 -38 18 -73 88 l-22 43 30 15 c16 8 33 12 39 9 40 -25 139 -2 139 33 0 10 7 27 15 38 19 25 19 13 1 -31 -16 -36 -5 -48 14 -17 9 14 10 12 5 -10 -6 -29 9 -39 19 -13 3 8 8 55 12 105 4 50 9 88 12 85 3 -3 11 0 18 6 16 13 21 3 27 -51 2 -19 4 7 4 58 0 60 -5 99 -13 110 -23 29 -17 53 14 61 2 1 2 -5 0 -11z m336 -50 c-9 -105 -35 -313 -40 -317 -11 -12 -13 11 -5 60 12 71 31 245 31 287 0 17 4 32 10 32 6 0 8 -24 4 -62z m286 55 c0 -5 -9 -23 -20 -41 -15 -24 -18 -38 -11 -51 12 -22 3 -61 -13 -61 -18 0 -8 112 10 123 8 4 14 15 14 22 0 8 5 15 10 15 6 0 10 -3 10 -7z m-650 -68 c6 4 10 -12 9 -42 l0 -48 -25 53 c-14 29 -22 58 -18 64 5 7 10 3 16 -11 4 -12 12 -19 18 -16z m652 -18 c-20 -22 -28 -7 -12 24 10 17 14 19 21 8 5 -9 2 -20 -9 -32z m-132 10 c0 -7 -6 -21 -13 -32 -13 -16 -14 -15 -9 13 4 31 22 46 22 19z m-4 -94 c-11 -11 -17 4 -9 23 7 18 8 18 11 1 2 -10 1 -21 -2 -24z m144 28 c0 -5 -7 -14 -15 -21 -16 -14 -18 -10 -9 14 6 17 24 22 24 7z m26 -28 c-10 -10 -19 5 -10 18 6 11 8 11 12 0 2 -7 1 -15 -2 -18z m-505 -66 l-5 -32 -7 30 c-4 17 -7 44 -7 60 l0 30 12 -28 c7 -15 10 -42 7 -60z m-34 41 c-3 -8 -6 -5 -6 6 -1 11 2 17 5 13 3 -3 4 -12 1 -19z m467 -5 c6 -30 0 -129 -9 -144 -4 -5 5 -20 18 -33 23 -23 25 -31 21 -100 -3 -49 -1 -76 6 -76 24 0 7 -18 -20 -22 -25 -4 -30 -2 -24 11 15 35 16 63 3 71 -10 7 -10 14 -1 34 10 22 8 27 -8 39 -18 12 -20 22 -15 83 3 38 5 90 5 117 -1 51 15 64 24 20z m49 -32 c-29 -55 -33 -59 -33 -35 0 11 9 30 20 42 24 26 25 33 3 25 -10 -4 -14 -2 -9 5 3 6 15 10 25 9 17 -1 17 -4 -6 -46z m-535 7 c2 -17 -2 -25 -12 -25 -11 0 -16 10 -16 30 0 35 24 32 28 -5z m392 -6 c0 -13 -12 -22 -22 -16 -10 6 -1 24 13 24 5 0 9 -4 9 -8z m-354 -52 c8 -64 24 -75 24 -18 0 31 3 39 10 28 5 -8 10 -37 10 -65 -1 -44 -2 -48 -14 -32 -7 9 -18 17 -25 17 -6 0 -11 17 -11 40 0 22 -4 40 -9 40 -6 0 -8 -29 -4 -70 4 -57 2 -76 -13 -98 -10 -15 -23 -38 -30 -51 -8 -16 -23 -25 -43 -27 -33 -4 -34 -4 -25 20 5 12 11 13 24 6 16 -9 22 -2 45 48 20 44 26 70 24 115 -2 40 2 61 11 67 7 4 9 13 6 19 -4 6 -3 11 3 11 6 0 13 -23 17 -50z m-56 -41 c-1 -76 -3 -99 -11 -99 -3 0 -11 -11 -17 -25 -17 -37 -33 -31 -20 8 6 17 15 37 19 43 5 6 12 39 15 73 8 74 14 74 14 0z m-34 -12 c-7 -28 -18 -61 -25 -72 -11 -18 -12 -17 -7 10 10 66 28 125 36 120 4 -3 3 -29 -4 -58z m434 14 c0 -6 -4 -13 -10 -16 -5 -3 -10 1 -10 9 0 9 5 16 10 16 6 0 10 -4 10 -9z m-706 -13 c-6 -10 -3 -9 9 0 14 12 16 11 14 -5 0 -11 -9 -18 -23 -18 -15 0 -20 5 -16 15 4 12 2 13 -9 3 -7 -7 -17 -13 -23 -13 -15 0 27 29 42 30 8 0 10 -5 6 -12z m842 -4 c-3 -9 -6 -20 -6 -25 0 -5 -4 -9 -9 -9 -4 0 -6 11 -3 25 2 14 9 25 14 25 6 0 7 -7 4 -16z m-466 -50 c0 -8 -4 -12 -10 -9 -5 3 -10 10 -10 16 0 5 5 9 10 9 6 0 10 -7 10 -16z m326 -20 c-3 -8 -10 -12 -16 -9 -7 4 -6 14 2 28 12 24 24 8 14 -19z m-296 7 c0 -16 -12 -41 -20 -41 -4 0 -5 11 -2 25 4 23 22 36 22 16z m475 -20 c3 -5 1 -12 -5 -16 -5 -3 -10 1 -10 9 0 18 6 21 15 7z m-986 -53 c1 -27 -16 -21 -23 7 -8 33 4 57 15 29 4 -10 8 -27 8 -36z m888 20 c-3 -8 -6 -5 -6 6 -1 11 2 17 5 13 3 -3 4 -12 1 -19z m-102 -27 c3 -5 2 -12 -3 -15 -5 -3 -9 1 -9 9 0 17 3 19 12 6z m200 -10 c3 -5 1 -12 -5 -16 -5 -3 -10 1 -10 9 0 18 6 21 15 7z m-960 -21 c3 -5 2 -10 -4 -10 -5 0 -13 5 -16 10 -3 6 -2 10 4 10 5 0 13 -4 16 -10z m399 -35 c-3 -8 -9 -13 -14 -12 -4 1 -17 -9 -28 -23 -20 -24 -21 -24 -15 -2 5 23 -6 29 -22 13 -12 -12 -97 -22 -90 -11 3 4 -2 10 -10 14 -8 3 -14 0 -12 -6 1 -5 -6 -12 -16 -13 -17 -3 -17 -2 -3 14 9 10 14 20 12 22 -3 3 14 4 37 4 23 0 47 3 54 8 6 4 14 3 18 -3 3 -5 1 -10 -5 -10 -6 0 -8 -5 -5 -10 5 -8 11 -8 20 0 7 6 20 8 29 4 9 -3 16 -1 16 5 0 6 7 11 16 11 9 0 12 5 8 12 -4 7 -3 8 4 4 6 -4 9 -13 6 -21z m476 21 c0 -3 -4 -8 -10 -11 -5 -3 -10 -1 -10 4 0 6 5 11 10 11 6 0 10 -2 10 -4z m-857 -26 c3 -11 1 -18 -4 -14 -5 3 -9 12 -9 20 0 20 7 17 13 -6z m413 -9 c0 -16 -4 -27 -9 -24 -4 2 -5 9 -2 14 4 5 1 9 -6 9 -8 0 -8 4 1 15 17 20 18 19 16 -14z m124 11 c7 -9 7 -9 -1 -3 -8 7 -18 2 -30 -12 -13 -16 -18 -18 -19 -7 0 13 -1 13 -10 0 -6 -9 -10 -10 -10 -3 0 6 5 15 10 18 6 4 8 10 6 14 -8 13 43 6 54 -7z m197 -12 c6 -17 7 -28 2 -24 -5 3 -9 0 -9 -5 0 -6 -5 -11 -11 -11 -6 0 -9 7 -5 15 3 8 1 15 -4 15 -6 0 -10 -5 -10 -12 0 -6 -3 -8 -7 -4 -5 4 0 14 11 21 10 8 15 18 11 24 -3 6 -2 11 2 11 5 0 14 -14 20 -30z m-650 12 c8 -5 7 -12 -4 -27 -13 -16 -15 -17 -10 -2 7 18 -8 24 -18 7 -4 -6 -11 -7 -17 -4 -7 5 -4 12 7 21 21 15 26 16 42 5z m60 -19 c-15 -16 -17 -16 -17 -1 0 9 6 18 13 21 20 7 22 -2 4 -20z m307 12 c-4 -8 -10 -15 -15 -15 -4 0 -6 7 -3 15 4 8 10 15 15 15 4 0 6 -7 3 -15z m-64 -19 c0 -2 -7 -7 -16 -10 -8 -3 -12 -2 -9 4 6 10 25 14 25 6z m155 -7 c11 -17 -1 -21 -15 -4 -8 9 -8 15 -2 15 6 0 14 -5 17 -11z m44 -15 c-6 -7 -9 -19 -7 -26 3 -7 2 -22 -3 -33 -6 -16 -8 -12 -8 17 -1 44 8 70 21 62 5 -3 4 -11 -3 -20z m178 -26 c-2 -13 -4 -5 -4 17 -1 22 1 32 4 23 2 -10 2 -28 0 -40z m40 30 c-3 -8 -6 -5 -6 6 -1 11 2 17 5 13 3 -3 4 -12 1 -19z m-747 -44 c0 -12 -5 -26 -12 -30 -7 -5 -9 -1 -6 13 6 24 -9 56 -23 48 -5 -4 -9 1 -9 10 0 14 2 14 25 -1 15 -10 25 -26 25 -40z m585 8 c-1 -20 -3 -56 -4 -79 -1 -24 -5 -43 -11 -43 -5 0 -8 15 -6 33 2 17 4 56 5 85 1 30 5 51 10 47 6 -3 8 -22 6 -43z m212 26 c-1 -6 4 -13 12 -16 8 -3 11 0 7 7 -4 6 -3 11 2 11 5 0 8 -19 7 -42 -4 -60 -4 -60 -14 -54 -5 4 -11 0 -14 -6 -2 -8 -8 -9 -13 -4 -5 5 -4 11 4 13 6 3 10 9 7 14 -4 5 2 6 12 2 14 -5 15 -3 7 6 -9 10 -17 9 -38 -4 -25 -16 -25 -18 -8 -40 15 -21 19 -22 33 -9 15 14 17 11 21 -26 2 -28 -1 -45 -11 -53 -12 -10 -13 -9 -7 1 4 7 2 19 -4 27 -13 16 -35 21 -26 6 3 -5 -1 -11 -9 -15 -18 -6 -20 -47 -3 -64 14 -14 52 4 42 20 -4 7 -3 8 5 4 6 -4 9 -12 6 -17 -4 -5 -1 -9 5 -9 6 0 8 -14 4 -40 -9 -58 1 -88 29 -86 18 1 23 6 20 21 -4 17 -3 17 6 5 9 -13 11 -11 11 7 0 12 -5 25 -10 28 -11 7 -9 42 3 61 4 7 7 23 6 35 -1 29 5 56 14 65 3 4 2 14 -2 23 -12 22 -7 107 7 124 7 8 11 16 9 18 -1 2 3 -2 10 -10 9 -10 24 -12 55 -7 24 3 37 3 30 -2 -8 -6 -10 -21 -6 -48 7 -46 7 -48 4 -54 -1 -3 -4 -65 -5 -139 -2 -118 -5 -136 -21 -148 -33 -24 -63 -27 -84 -8 -11 10 -20 15 -20 10 0 -4 -6 -2 -14 4 -11 9 -18 6 -35 -15 -17 -22 -20 -37 -17 -79 2 -29 7 -58 10 -64 5 -7 1 -8 -10 -4 -10 4 -15 2 -11 -4 3 -5 1 -10 -6 -11 -37 -5 -84 -14 -97 -20 -22 -9 -169 -9 -164 0 3 5 -5 8 -17 8 -12 0 -19 3 -16 7 4 3 -2 12 -13 20 -15 10 -19 22 -15 46 2 18 7 63 10 101 3 37 10 77 16 88 8 15 8 19 0 14 -6 -4 -11 -3 -11 3 0 5 5 13 10 16 7 4 7 12 0 24 -5 10 -7 20 -5 23 2 2 7 26 10 53 3 28 6 58 7 67 1 9 5 15 9 12 4 -2 9 1 11 8 3 7 7 2 10 -10 5 -16 2 -22 -10 -22 -11 -1 -6 -7 13 -18 29 -17 30 -19 30 -98 0 -62 4 -85 17 -98 16 -16 18 -15 34 16 9 17 17 53 18 80 0 26 3 48 6 48 3 0 4 26 2 57 -2 32 1 76 7 98 8 32 9 17 6 -72 -2 -65 0 -115 6 -119 5 -3 7 -10 4 -15 -4 -5 -8 -17 -10 -26 -2 -10 -6 -25 -9 -33 -10 -24 17 -54 41 -46 11 3 20 12 21 19 8 72 8 86 0 81 -4 -3 -8 0 -8 5 0 6 5 11 11 11 6 0 9 7 5 15 -3 8 -2 15 2 15 4 0 7 27 7 59 0 33 -3 57 -7 55 -3 -2 -4 5 -1 16 3 11 9 17 14 15 4 -3 18 4 30 16 16 16 23 18 29 9 5 -8 10 -9 14 -2 3 6 -3 13 -14 17 -11 3 -20 12 -20 18 0 7 -4 6 -10 -3 -7 -12 -9 -11 -8 6 2 15 7 20 20 16 9 -2 16 -9 15 -14z m85 -1 c-6 -7 -12 -35 -13 -62 -3 -105 -12 -196 -18 -190 -7 7 -2 245 6 258 2 4 11 7 20 7 11 0 13 -3 5 -13z m-256 -124 c-11 -188 -24 -234 -19 -63 3 80 5 155 4 168 0 12 4 22 11 22 8 0 9 -35 4 -127z m121 85 c-3 -7 -5 -2 -5 12 0 14 2 19 5 13 2 -7 2 -19 0 -25z m-793 6 c4 -9 4 -19 1 -22 -3 -3 -5 0 -5 6 0 7 -17 12 -42 13 -33 0 -38 2 -23 9 32 14 62 11 69 -6z m592 -42 c-12 -12 -18 8 -10 35 l8 28 4 -28 c2 -16 1 -31 -2 -35z m-670 10 c-3 -3 2 -11 12 -18 9 -7 13 -13 7 -13 -18 0 -47 27 -40 38 3 6 11 9 16 5 6 -3 8 -8 5 -12z m833 -72 c-2 -49 -6 -90 -11 -90 -4 0 -6 30 -4 68 2 37 4 77 5 90 1 12 4 22 7 22 3 0 4 -40 3 -90z m-758 20 c-7 -4 -13 -13 -15 -21 -4 -22 -47 -89 -57 -89 -5 0 -11 -11 -15 -25 -3 -14 -15 -30 -26 -36 -13 -7 -18 -17 -15 -30 3 -12 -2 -23 -14 -29 -11 -6 -19 -21 -19 -35 0 -14 -4 -25 -9 -25 -5 0 -7 10 -4 23 4 18 3 19 -6 7 -6 -8 -11 -23 -11 -34 0 -10 -14 -47 -31 -82 -29 -62 -32 -64 -65 -62 -40 3 -41 5 -11 38 12 14 31 42 42 64 11 21 26 40 33 43 6 3 12 11 12 18 0 8 8 21 17 31 10 9 18 22 19 29 1 7 22 41 48 76 25 35 57 85 72 111 17 30 31 45 40 41 8 -3 14 1 15 8 0 12 1 12 6 0 3 -7 0 -17 -6 -21z m-86 0 c3 -5 1 -10 -4 -10 -6 0 -11 5 -11 10 0 6 2 10 4 10 3 0 8 -4 11 -10z m925 -94 c0 -36 -15 -40 -18 -5 -1 16 2 29 8 29 5 0 10 -11 10 -24z m-94 -124 c-13 -12 -16 8 -9 49 l8 44 3 -44 c2 -23 1 -46 -2 -49z m165 54 c-6 -7 -8 -27 -5 -45 4 -20 3 -31 -5 -31 -12 0 -16 72 -4 83 12 13 25 7 14 -7z m-1151 -46 c0 -5 -4 -10 -10 -10 -5 0 -10 5 -10 10 0 6 5 10 10 10 6 0 10 -4 10 -10z m-30 -43 c-1 -21 -1 -21 -15 -3 -8 10 -12 23 -9 28 9 14 24 -2 24 -25z m40 3 c0 -5 -4 -10 -10 -10 -5 0 -10 5 -10 10 0 6 5 10 10 10 6 0 10 -4 10 -10z" class=""></path> <path d="M4809 2238 c-7 -28 -7 -78 1 -78 5 0 10 18 10 40 0 22 -2 40 -5 40 -3 0 -5 -1 -6 -2z"></path> <path d="M4780 2204 c0 -8 5 -12 10 -9 6 3 10 10 10 16 0 5 -4 9 -10 9 -5 0 -10 -7 -10 -16z"></path> <path d="M4715 2150 c-4 -22 -15 -46 -26 -54 -10 -7 -21 -26 -23 -42 -3 -16 -8 -39 -11 -51 -4 -13 -3 -23 2 -23 6 0 16 19 22 42 7 23 19 47 26 53 15 11 37 115 25 115 -5 0 -11 -18 -15 -40z"></path> <path d="M4751 2173 c-1 -6 -4 -19 -8 -29 -4 -12 -3 -15 5 -10 9 5 11 -22 11 -101 -1 -116 7 -183 23 -183 5 0 6 10 2 22 -8 26 -7 205 2 266 4 28 3 42 -5 42 -6 0 -11 -8 -12 -17 0 -15 -2 -15 -9 2 -5 11 -9 15 -9 8z"></path> <path d="M4685 2140 c-3 -5 -1 -10 4 -10 6 0 11 5 11 10 0 6 -2 10 -4 10 -3 0 -8 -4 -11 -10z"></path> <path d="M4805 2141 c-4 -8 -6 -137 -3 -258 0 -13 6 -23 14 -23 11 0 12 7 7 28 -5 15 -8 80 -7 145 1 64 0 117 -2 117 -1 0 -5 -4 -9 -9z"></path> <path d="M4670 2109 c0 -5 5 -7 10 -4 6 3 10 8 10 11 0 2 -4 4 -10 4 -5 0 -10 -5 -10 -11z"></path> <path d="M4737 2103 c-11 -10 -8 -43 3 -43 6 0 10 11 10 25 0 26 -2 29 -13 18z"></path> <path d="M4731 2034 c0 -11 3 -14 6 -6 3 7 2 16 -1 19 -3 4 -6 -2 -5 -13z"></path> <path d="M4570 2030 c0 -5 5 -10 11 -10 5 0 7 5 4 10 -3 6 -8 10 -11 10 -2 0 -4 -4 -4 -10z"></path> <path d="M4729 2005 c0 -6 -2 -29 -5 -53 -3 -24 -2 -55 2 -70 7 -22 9 -14 14 43 4 39 3 74 -2 80 -5 6 -8 6 -9 0z"></path> <path d="M4783 1523 c1 -81 -19 -152 -54 -191 -29 -32 -29 -32 -62 -16 -17 9 -44 27 -58 41 l-26 24 -6 -22 c-7 -25 3 -43 10 -21 4 10 8 10 19 1 10 -8 11 -15 4 -24 -8 -10 -2 -18 25 -35 19 -12 40 -20 47 -18 6 2 -6 14 -27 26 -53 32 -39 36 20 7 52 -25 95 -32 95 -15 0 6 -12 10 -27 10 l-26 0 20 23 c11 12 26 33 34 47 16 32 35 145 31 188 -5 55 -20 35 -19 -25z"></path> <path d="M4690 1392 c0 -6 -7 -12 -15 -12 -8 0 -15 -5 -15 -10 0 -7 -6 -7 -19 0 -24 12 -31 13 -31 1 0 -5 14 -15 32 -22 24 -10 33 -10 36 -1 2 7 8 12 13 12 4 0 6 -7 3 -15 -8 -20 10 -19 26 1 11 13 10 19 -8 37 -12 12 -22 16 -22 9z" class=""></path> <path d="M5340 2949 c0 -11 5 -17 10 -14 6 3 10 13 10 21 0 8 -4 14 -10 14 -5 0 -10 -9 -10 -21z"></path> <path d="M5595 2888 c-18 -62 -18 -58 -1 -58 12 0 12 -6 0 -37 -16 -45 -17 -63 -5 -63 5 0 12 15 16 33 4 17 13 42 21 55 13 20 13 23 -1 28 -19 8 -19 21 -1 56 14 25 12 38 -5 38 -5 0 -15 -23 -24 -52z"></path> <path d="M5230 2864 c0 -21 3 -34 7 -31 10 11 12 56 2 62 -5 4 -9 -11 -9 -31z"></path> <path d="M5260 2869 c0 -8 -2 -71 -4 -141 -3 -77 -1 -128 5 -128 5 0 9 21 10 48 3 126 1 224 -5 229 -3 4 -6 0 -6 -8z"></path> <path d="M5222 2687 c-13 -141 -15 -213 -7 -205 15 15 36 320 23 333 -3 3 -10 -55 -16 -128z"></path> <path d="M5605 2720 c-40 -129 -39 -123 -25 -115 13 8 11 -10 -6 -67 -3 -10 -1 -18 4 -18 6 0 6 -16 -1 -42 -7 -29 -7 -43 0 -45 7 -3 6 -18 -4 -44 -9 -28 -10 -45 -4 -53 7 -8 7 -25 0 -51 -8 -28 -8 -40 1 -45 9 -5 9 -17 1 -46 -7 -25 -7 -40 -1 -44 7 -4 5 -24 -5 -56 -8 -27 -15 -50 -15 -51 0 -2 7 -3 15 -3 14 0 14 -3 0 -30 -17 -32 -20 -80 -5 -80 5 0 3 -19 -5 -41 -19 -52 -19 -59 0 -59 12 0 12 -6 0 -47 -11 -36 -11 -49 -2 -55 8 -5 7 -20 -7 -58 -14 -39 -16 -54 -7 -59 8 -5 9 -15 3 -32 -19 -51 -23 -81 -11 -77 15 5 72 192 60 196 -8 3 -4 30 15 91 5 18 4 22 -6 16 -10 -6 -11 -2 -6 19 3 14 9 37 12 51 4 14 2 25 -4 25 -6 0 -13 -14 -17 -30 -4 -16 -11 -30 -17 -30 -6 0 -7 7 -3 18 11 25 41 122 49 157 10 42 -8 20 -24 -28 -7 -21 -14 -37 -16 -34 -2 2 6 35 18 72 14 46 17 70 10 73 -7 2 -7 16 3 47 9 32 10 45 1 48 -8 3 -8 15 1 48 8 32 9 47 0 57 -8 10 -8 15 1 21 7 4 10 15 6 24 -4 12 -1 17 12 18 16 0 15 2 -3 9 -26 11 -28 23 -12 70 9 25 9 34 -1 40 -8 5 -9 15 -4 31 4 13 9 35 10 49 1 14 4 42 7 63 5 31 3 38 -8 33 -11 -4 -12 0 -6 17 20 51 33 105 29 122 -2 11 -16 -23 -33 -75z"></path> <path d="M5663 2725 c0 -8 4 -12 9 -9 5 3 6 10 3 15 -9 13 -12 11 -12 -6z"></path> <path d="M5330 2720 c0 -5 5 -10 11 -10 5 0 7 5 4 10 -3 6 -8 10 -11 10 -2 0 -4 -4 -4 -10z"></path> <path d="M5450 2699 c0 -5 5 -7 10 -4 6 3 10 8 10 11 0 2 -4 4 -10 4 -5 0 -10 -5 -10 -11z"></path> <path d="M3768 2593 c-36 -4 -46 -12 -32 -25 3 -3 30 0 60 7 102 24 68 3 -149 -90 l-102 -44 -98 9 c-54 5 -117 15 -139 21 -29 7 -44 7 -51 0 -6 -6 -7 -11 -1 -11 5 0 36 -5 69 -11 106 -18 119 -19 185 -21 52 -1 75 4 115 25 48 25 91 43 108 46 4 0 29 12 57 26 27 14 59 25 71 25 15 0 19 4 15 15 -5 14 3 15 50 11 30 -3 60 -8 65 -11 5 -4 9 -2 9 4 0 5 -5 13 -11 17 -13 8 -166 13 -221 7z"></path> <path d="M4016 2581 c-4 -5 -2 -12 3 -15 5 -4 12 -2 15 3 4 5 2 12 -3 15 -5 4 -12 2 -15 -3z"></path> <path d="M5249 2523 c0 -37 -2 -87 -5 -110 -3 -24 -2 -43 4 -43 18 0 29 204 12 215 -6 4 -10 -19 -11 -62z"></path> <path d="M3600 2559 c-47 -11 -134 -21 -195 -23 -138 -4 -140 -5 -132 -13 8 -7 214 -5 251 3 11 2 56 11 100 18 43 8 83 19 89 25 15 15 -9 13 -113 -10z"></path> <path d="M3105 2501 c-4 -7 8 -11 32 -11 21 0 56 -3 78 -6 35 -5 37 -4 20 7 -26 16 -121 23 -130 10z"></path> <path d="M3050 2463 c0 -6 8 -17 18 -24 16 -13 16 -13 2 6 -8 11 -16 22 -17 24 -2 2 -3 0 -3 -6z"></path> <path d="M961 2404 c0 -11 3 -14 6 -6 3 7 2 16 -1 19 -3 4 -6 -2 -5 -13z"></path>  <path d="M5649 2313 c-13 -16 -12 -17 4 -4 9 7 17 15 17 17 0 8 -8 3 -21 -13z"></path> <path d="M3170 2281 c0 -6 5 -13 10 -16 6 -3 10 1 10 9 0 9 -4 16 -10 16 -5 0 -10 -4 -10 -9z"></path> <path d="M2990 2273 c-41 -2 -79 -9 -85 -15 -13 -14 205 -2 219 12 7 7 -2 9 -24 8 -19 -1 -69 -4 -110 -5z"></path> <path d="M2770 2262 c-64 -6 -128 -31 -126 -50 2 -9 9 -17 17 -17 8 0 30 -6 49 -12 99 -33 373 -43 470 -18 30 8 80 14 110 15 69 0 172 22 168 35 -2 6 -7 9 -13 7 -11 -4 -20 -4 -94 4 -38 4 -51 3 -47 -5 4 -6 17 -11 28 -11 12 0 18 -3 15 -7 -4 -4 -37 -6 -74 -5 -36 1 -71 -2 -78 -8 -14 -11 -158 -29 -206 -24 -222 19 -319 36 -319 54 0 10 53 20 101 20 21 0 40 4 44 9 8 13 -5 17 -45 13z"></path> <path d="M2865 2261 c-6 -11 9 -23 19 -14 9 9 7 23 -3 23 -6 0 -12 -4 -16 -9z"></path> <path d="M5354 2239 c-3 -6 -1 -16 5 -22 8 -8 11 -5 11 11 0 24 -5 28 -16 11z"></path> <path d="M3130 2230 c0 -5 18 -10 41 -10 24 0 38 4 34 10 -3 6 -22 10 -41 10 -19 0 -34 -4 -34 -10z"></path> <path d="M3226 2231 c-3 -5 8 -11 25 -13 35 -5 49 7 16 16 -30 8 -35 7 -41 -3z"></path> <path d="M5327 2209 c4 -13 8 -18 11 -10 2 7 -1 18 -6 23 -8 8 -9 4 -5 -13z"></path> <path d="M1920 2160 c-9 -6 -10 -10 -3 -10 6 0 15 5 18 10 8 12 4 12 -15 0z"></path> <path d="M2015 2140 c-3 -5 1 -10 9 -10 9 0 16 5 16 10 0 6 -4 10 -9 10 -6 0 -13 -4 -16 -10z"></path> <path d="M1971 2131 c-10 -7 -10 -10 -1 -16 6 -4 16 -3 22 3 13 13 -4 23 -21 13z"></path> <path d="M2246 2113 c-4 -4 -25 -6 -46 -4 -23 1 -40 -2 -40 -8 0 -6 13 -8 33 -5 28 5 30 4 15 -8 -9 -7 -25 -18 -35 -24 -10 -7 -15 -15 -12 -18 8 -9 89 33 89 45 0 5 7 9 15 9 8 0 15 5 15 10 0 11 -23 13 -34 3z"></path> <path d="M887 2104 c-12 -12 65 -34 121 -34 75 0 64 16 -15 23 -38 2 -75 8 -84 11 -8 4 -18 3 -22 0z"></path> <path d="M1810 2095 c-30 -8 -83 -14 -117 -15 -35 0 -63 -4 -63 -10 0 -10 18 -14 50 -12 109 6 230 29 230 43 0 12 -34 10 -100 -6z"></path> <path d="M2033 2103 c-40 -5 -44 -23 -5 -23 45 0 102 12 102 21 0 9 -35 9 -97 2z"></path> <path d="M775 2089 c-16 -5 -75 -18 -130 -29 -123 -26 -195 -48 -215 -66 -20 -20 0 -18 57 5 27 10 89 26 138 35 102 18 205 45 220 58 12 10 -31 9 -70 -3z"></path> <path d="M1148 2093 c-122 -6 -97 -25 30 -23 59 1 181 -2 271 -6 108 -5 162 -4 158 3 -4 6 -80 13 -174 16 -92 3 -177 8 -188 10 -11 2 -55 2 -97 0z"></path> <path d="M1776 2025 c4 -8 11 -15 16 -15 6 0 5 6 -2 15 -7 8 -14 15 -16 15 -2 0 -1 -7 2 -15z"></path> <path d="M2115 2017 c-11 -7 -35 -22 -53 -35 -70 -50 -223 -101 -377 -126 -76 -13 -95 -18 -95 -26 0 -11 66 -2 185 25 55 13 115 26 134 30 51 11 211 100 211 118 0 4 6 7 14 7 8 0 18 5 21 10 8 13 -15 12 -40 -3z"></path>  <path d="M340 1970 c-26 -16 -4 -21 31 -6 31 14 32 15 9 15 -14 1 -32 -3 -40 -9z"></path>  <path d="M373 1953 c-33 -12 -4 -18 100 -21 61 -1 137 -6 167 -11 31 -5 61 -5 70 0 8 4 13 9 10 9 -22 5 -82 10 -180 14 -63 3 -124 8 -135 10 -11 2 -26 2 -32 -1z"></path> <path d="M583 1887 c-42 -10 -53 -20 -34 -32 5 -3 12 -1 16 5 3 5 16 10 28 10 12 1 36 7 52 15 29 13 29 13 5 13 -14 0 -44 -5 -67 -11z"></path> <path d="M4440 1856 c0 -33 25 -40 111 -31 84 9 94 28 12 23 -50 -3 -58 -1 -57 15 1 13 -6 17 -32 17 -29 0 -34 -3 -34 -24z" class=""></path> <path d="M570 1840 c0 -5 6 -10 14 -10 8 0 18 5 21 10 3 6 -3 10 -14 10 -12 0 -21 -4 -21 -10z"></path> <path d="M632 1834 c11 -10 118 -14 118 -4 0 6 -27 10 -62 10 -34 0 -59 -2 -56 -6z"></path> <path d="M764 1823 c4 -5 53 -18 109 -30 56 -12 114 -25 130 -29 15 -4 27 -2 27 3 0 6 -15 13 -32 16 -18 4 -64 16 -103 26 -70 20 -145 28 -131 14z"></path> <path d="M1390 1823 c0 -5 38 -9 85 -10 47 -1 85 3 85 8 0 5 -38 9 -85 9 -47 0 -85 -3 -85 -7z"></path> <path d="M1664 1809 c-8 -13 28 -20 105 -20 68 0 159 16 121 21 -39 6 -86 5 -95 -1 -5 -3 -36 -3 -68 0 -32 4 -60 4 -63 0z"></path>  <path d="M1918 1793 c6 -2 18 -2 25 0 6 3 1 5 -13 5 -14 0 -19 -2 -12 -5z"></path> <path d="M1868 1784 c-6 -5 -32 -12 -55 -13 -7 -1 -13 -5 -13 -11 0 -12 33 -14 44 -2 4 4 12 8 17 8 5 1 14 2 19 3 12 1 14 21 2 21 -5 0 -11 -3 -14 -6z"></path> <path d="M1046 1753 c-15 -16 171 -53 296 -59 179 -9 428 19 428 49 0 5 -10 6 -22 3 -23 -6 -134 -23 -238 -35 -87 -10 -277 4 -367 28 -93 24 -87 23 -97 14z"></path> <path d="M4665 1653 c-10 -21 -22 -46 -26 -55 -5 -9 -5 -19 0 -22 8 -5 56 102 49 110 -3 2 -13 -13 -23 -33z"></path> <path d="M5236 1661 c-4 -7 -5 -15 -2 -18 9 -9 19 4 14 18 -4 11 -6 11 -12 0z"></path> <path d="M5226 1598 c-6 -31 -2 -47 10 -36 10 11 15 68 6 68 -5 0 -12 -14 -16 -32z"></path> <path d="M5591 1601 c-21 -39 -59 -171 -50 -177 10 -6 26 31 56 124 19 60 15 94 -6 53z"></path> <path d="M5226 1522 c-4 -13 -5 -26 -2 -29 10 -11 18 4 14 29 l-4 23 -8 -23z"></path> <path d="M5219 1428 c-1 -69 -5 -110 -13 -150 -5 -23 -4 -38 1 -38 22 0 44 212 23 225 -6 4 -10 -11 -11 -37z"></path> <path d="M1408 1383 c7 -3 16 -2 19 1 4 3 -2 6 -13 5 -11 0 -14 -3 -6 -6z"></path> <path d="M5621 1364 c0 -11 3 -14 6 -6 3 7 2 16 -1 19 -3 4 -6 -2 -5 -13z"></path>  <path d="M180 940 c0 -5 11 -10 25 -10 14 0 25 5 25 10 0 6 -11 10 -25 10 -14 0 -25 -4 -25 -10z"></path> <path d="M274 938 c-10 -16 29 -18 308 -17 161 1 439 -1 618 -5 269 -5 814 -9 909 -7 16 1 21 5 15 10 -14 14 -1842 32 -1850 19z"></path> <path d="M2140 920 c0 -5 5 -10 10 -10 6 0 10 5 10 10 0 6 -4 10 -10 10 -5 0 -10 -4 -10 -10z"></path> <path d="M2170 920 c0 -5 7 -10 16 -10 8 0 12 5 9 10 -3 6 -10 10 -16 10 -5 0 -9 -4 -9 -10z"></path> <path d="M2230 920 c0 -5 25 -10 55 -10 30 0 55 5 55 10 0 6 -25 10 -55 10 -30 0 -55 -4 -55 -10z"></path> <path d="M2350 920 c0 -5 7 -10 15 -10 8 0 15 5 15 10 0 6 -7 10 -15 10 -8 0 -15 -4 -15 -10z"></path> <path d="M2415 920 c-4 -6 12 -10 40 -10 28 0 44 4 40 10 -3 6 -21 10 -40 10 -19 0 -37 -4 -40 -10z" class=""></path> <path d="M2510 919 c0 -10 194 -13 1002 -13 361 -1 547 2 545 9 -5 13 -1547 17 -1547 4z" class=""></path> <path d="M4593 922 c-18 -2 -33 -7 -33 -13 0 -5 48 -9 110 -9 67 0 110 4 110 10 0 6 -8 10 -17 10 -10 1 -45 2 -78 3 -33 1 -75 1 -92 -1z" class=""></path> <path d="M4853 922 c-24 -2 -43 -7 -43 -11 0 -11 193 -21 204 -11 15 15 -83 28 -161 22z" class=""></path> <path d="M4090 910 c0 -5 9 -10 21 -10 11 0 17 5 14 10 -3 6 -13 10 -21 10 -8 0 -14 -4 -14 -10z"></path> <path d="M4185 910 c3 -5 13 -10 21 -10 8 0 14 5 14 10 0 6 -9 10 -21 10 -11 0 -17 -4 -14 -10z"></path> <path d="M507 898 c-6 -4 67 -8 163 -8 96 -1 284 -3 418 -6 168 -4 242 -2 242 5 0 10 -47 12 -673 16 -76 0 -143 -3 -150 -7z"></path> <path d="M390 892 c0 -9 47 -8 57 1 3 4 -8 7 -25 7 -18 0 -32 -4 -32 -8z"></path> <path d="M1385 889 c-62 -7 -50 -11 35 -10 36 0 145 0 243 0 102 1 177 5 177 10 0 10 -370 10 -455 0z"></path> <path d="M1943 892 c-40 -2 -73 -7 -73 -12 0 -10 185 -9 195 2 9 9 -43 13 -122 10z"></path> <path d="M2100 892 c-28 -10 -3 -19 50 -19 33 -1 60 3 60 8 0 5 -8 9 -17 10 -10 0 -33 1 -51 2 -17 1 -37 1 -42 -1z"></path> <path d="M2295 880 c-3 -5 -1 -10 4 -10 6 0 11 5 11 10 0 6 -2 10 -4 10 -3 0 -8 -4 -11 -10z" class=""></path> <path d="M520 860 c0 -6 11 -9 25 -7 37 5 42 17 7 17 -18 0 -32 -5 -32 -10z"></path> <path d="M660 861 c0 -8 23 -12 73 -11 39 1 188 -2 330 -6 190 -5 257 -4 257 5 0 8 -44 11 -147 11 -82 0 -230 3 -330 7 -138 4 -183 3 -183 -6z"></path> <path d="M1345 850 c-3 -5 1 -10 9 -10 9 0 16 5 16 10 0 6 -4 10 -9 10 -6 0 -13 -4 -16 -10z"></path> <path d="M1385 850 c-3 -5 3 -10 14 -10 12 0 21 5 21 10 0 6 -6 10 -14 10 -8 0 -18 -4 -21 -10z"></path> <path d="M1450 850 c0 -5 5 -10 10 -10 6 0 10 5 10 10 0 6 -4 10 -10 10 -5 0 -10 -4 -10 -10z"></path> <path d="M1490 849 c0 -5 46 -10 103 -10 56 -1 127 -3 157 -4 65 -4 233 -7 273 -6 16 1 26 5 23 9 -3 5 -69 9 -148 11 -79 1 -203 4 -275 6 -73 1 -133 -1 -133 -6z" class=""></path> <path d="M2311 847 c-8 -10 -7 -14 2 -14 8 0 14 6 14 14 0 7 -1 13 -2 13 -2 0 -8 -6 -14 -13z"></path>  <path d="M2075 830 c3 -5 13 -10 21 -10 8 0 14 5 14 10 0 6 -9 10 -21 10 -11 0 -17 -4 -14 -10z" class=""></path> <path d="M2385 830 c-4 -6 7 -10 24 -10 17 0 31 5 31 10 0 6 -11 10 -24 10 -14 0 -28 -4 -31 -10z" class=""></path> <path d="M2470 829 c0 -5 35 -9 78 -9 45 0 72 4 64 9 -18 11 -142 12 -142 0z"></path> <path d="M2640 830 c0 -6 41 -10 95 -10 52 0 95 3 95 8 0 4 -43 8 -95 9 -55 1 -95 -2 -95 -7z"></path> <path d="M2885 830 c-4 -6 40 -9 120 -9 72 0 125 4 125 10 0 12 -237 12 -245 -1z"></path> <path d="M3174 828 c-3 -5 -4 -8 -2 -8 2 0 54 -2 116 -4 61 -1 112 1 112 5 0 5 -19 10 -42 10 -129 5 -180 4 -184 -3z"></path> <path d="M645 820 c-4 -6 5 -10 20 -10 15 0 24 4 20 10 -3 6 -12 10 -20 10 -8 0 -17 -4 -20 -10z"></path> <path d="M3450 819 c0 -6 13 -8 31 -5 45 7 48 16 6 16 -20 0 -37 -5 -37 -11z"></path> <path d="M710 810 c0 -5 9 -10 20 -10 11 0 20 5 20 10 0 6 -9 10 -20 10 -11 0 -20 -4 -20 -10z"></path> <path d="M795 809 c-4 -5 21 -9 59 -9 36 0 66 4 66 9 0 12 -118 13 -125 0z"></path> <path d="M950 812 c0 -13 103 -22 115 -11 5 6 5 9 0 10 -6 0 -34 2 -62 5 -29 3 -53 1 -53 -4z"></path> <path d="M1107 808 c-7 -4 4 -8 23 -9 104 -4 130 -4 130 3 0 4 -9 8 -20 9 -85 4 -124 3 -133 -3z"></path> <path d="M1306 811 c-3 -5 1 -11 9 -15 15 -6 29 7 18 18 -9 9 -21 8 -27 -3z"></path> <path d="M1398 812 c-58 -7 -25 -17 49 -15 43 1 90 2 106 3 15 0 27 4 27 8 0 8 -129 11 -182 4z"></path> <path d="M1612 808 c-14 -5 13 -8 83 -8 3 0 4 3 3 7 -4 8 -65 10 -86 1z" class=""></path> <path d="M1748 800 c36 -8 120 -6 129 4 4 3 -32 6 -78 5 -63 -1 -76 -3 -51 -9z"></path> <path d="M1895 800 c3 -5 22 -10 41 -10 21 0 33 4 29 10 -3 6 -22 10 -41 10 -21 0 -33 -4 -29 -10z" class=""></path> <path d="M2117 798 c-8 -5 -6 -8 8 -9 11 0 27 -2 36 -4 9 -1 22 1 29 5 7 5 -2 9 -24 12 -20 2 -42 0 -49 -4z"></path> <path d="M2490 800 c0 -6 7 -10 15 -10 8 0 15 2 15 4 0 2 -7 6 -15 10 -8 3 -15 1 -15 -4z"></path> <path d="M2580 800 c0 -5 9 -10 21 -10 11 0 17 5 14 10 -3 6 -13 10 -21 10 -8 0 -14 -4 -14 -10z"></path> <path d="M2636 802 c-7 -12 116 -19 382 -21 115 0 201 3 198 8 -3 5 -124 9 -268 10 -145 1 -273 4 -284 7 -12 3 -24 1 -28 -4z"></path> <path d="M3230 790 c0 -5 7 -10 16 -10 8 0 12 5 9 10 -3 6 -10 10 -16 10 -5 0 -9 -4 -9 -10z"></path> <path d="M3334 788 c-3 -5 54 -8 127 -8 73 0 129 3 125 8 -10 9 -246 10 -252 0z"></path> <path d="M3631 791 c-11 -7 -11 -9 0 -13 20 -7 50 3 43 13 -7 11 -25 11 -43 0z"></path> <path d="M3715 780 c3 -5 13 -10 21 -10 8 0 14 5 14 10 0 6 -9 10 -21 10 -11 0 -17 -4 -14 -10z"></path> <path d="M740 760 c0 -5 41 -9 95 -9 54 0 95 4 95 9 0 6 -41 10 -95 10 -54 0 -95 -4 -95 -10z"></path> <path d="M970 760 c0 -6 34 -10 81 -10 51 0 78 4 74 10 -3 6 -40 10 -81 10 -43 0 -74 -4 -74 -10z"></path> <path d="M1160 760 c0 -13 212 -11 232 1 7 5 -41 9 -109 9 -78 0 -123 -4 -123 -10z"></path> <path d="M1460 760 c0 -5 20 -10 45 -10 25 0 45 5 45 10 0 6 -20 10 -45 10 -25 0 -45 -4 -45 -10z"></path> <path d="M1584 763 c11 -11 195 -12 202 -2 3 5 -43 9 -102 9 -59 0 -104 -3 -100 -7z"></path> <path d="M1810 760 c0 -5 9 -10 20 -10 11 0 20 5 20 10 0 6 -9 10 -20 10 -11 0 -20 -4 -20 -10z" class=""></path> <path d="M1910 760 c0 -14 104 -20 117 -7 10 9 -1 12 -52 13 -36 0 -65 -2 -65 -6z"></path> <path d="M2540 760 c0 -5 5 -10 10 -10 6 0 10 5 10 10 0 6 -4 10 -10 10 -5 0 -10 -4 -10 -10z"></path> <path d="M2575 760 c-3 -5 1 -10 9 -10 9 0 16 5 16 10 0 6 -4 10 -9 10 -6 0 -13 -4 -16 -10z"></path> <path d="M2630 760 c0 -5 7 -10 16 -10 8 0 12 5 9 10 -3 6 -10 10 -16 10 -5 0 -9 -4 -9 -10z"></path> <path d="M2687 758 c-7 -4 15 -8 47 -8 33 0 56 3 53 7 -10 9 -86 10 -100 1z"></path> <path d="M2940 759 c-47 -3 -80 -7 -75 -9 21 -6 285 -5 285 3 0 4 -8 7 -17 8 -10 0 -38 1 -63 2 -25 1 -83 -1 -130 -4z"></path> <path d="M2114 751 c7 -10 31 -9 42 2 4 4 -5 7 -20 7 -15 0 -25 -4 -22 -9z" class=""></path> <path d="M2800 756 c0 -2 7 -6 15 -10 8 -3 15 -1 15 4 0 6 -7 10 -15 10 -8 0 -15 -2 -15 -4z"></path> <path d="M3183 753 c9 -2 23 -2 30 0 6 3 -1 5 -18 5 -16 0 -22 -2 -12 -5z"></path> <path d="M3250 750 c0 -6 27 -10 60 -10 33 0 60 4 60 10 0 6 -27 10 -60 10 -33 0 -60 -4 -60 -10z"></path> <path d="M3395 750 c3 -5 24 -10 46 -10 21 0 39 5 39 10 0 6 -21 10 -46 10 -27 0 -43 -4 -39 -10z"></path> <path d="M3500 749 c0 -9 130 -23 137 -15 4 3 4 8 2 10 -8 7 -139 12 -139 5z"></path> <path d="M2349 738 c-5 -18 -6 -38 -1 -34 7 8 12 36 6 36 -2 0 -4 -1 -5 -2z"></path> <path d="M5654 718 l-19 -23 23 19 c12 11 22 21 22 23 0 8 -8 2 -26 -19z"></path> <path d="M1114 719 c-4 -7 -3 -9 4 -5 5 3 13 0 15 -6 4 -9 6 -10 6 -1 1 17 -16 25 -25 12z"></path> <path d="M2380 720 c0 -5 16 -10 35 -10 19 0 35 5 35 10 0 6 -16 10 -35 10 -19 0 -35 -4 -35 -10z"></path> <path d="M2515 720 c-3 -5 1 -10 9 -10 9 0 16 5 16 10 0 6 -4 10 -9 10 -6 0 -13 -4 -16 -10z"></path> <path d="M965 710 c-3 -5 3 -10 15 -10 12 0 18 5 15 10 -3 6 -10 10 -15 10 -5 0 -12 -4 -15 -10z"></path> <path d="M1040 710 c0 -5 7 -10 15 -10 8 0 15 5 15 10 0 6 -7 10 -15 10 -8 0 -15 -4 -15 -10z"></path> <path d="M1197 708 c-12 -8 -4 -9 63 -10 77 -1 110 2 110 12 0 11 -155 9 -173 -2z"></path> <path d="M1390 708 c0 -4 12 -8 27 -8 14 0 23 3 19 7 -10 10 -46 11 -46 1z"></path> <path d="M1495 710 c-4 -6 7 -10 25 -10 18 0 29 4 25 10 -3 6 -15 10 -25 10 -10 0 -22 -4 -25 -10z"></path> <path d="M1570 710 c0 -5 10 -10 23 -10 18 0 19 2 7 10 -19 13 -30 13 -30 0z"></path> <path d="M1635 710 c-4 -6 13 -10 41 -10 26 0 44 3 40 7 -11 11 -75 13 -81 3z"></path> <path d="M1766 711 c-4 -5 -2 -12 3 -15 5 -4 12 -2 15 3 4 5 2 12 -3 15 -5 4 -12 2 -15 -3z"></path> <path d="M1810 710 c-13 -8 -12 -10 3 -10 9 0 17 5 17 10 0 12 -1 12 -20 0z"></path> <path d="M2555 710 c3 -5 24 -10 46 -10 24 0 38 4 34 10 -3 6 -24 10 -46 10 -24 0 -38 -4 -34 -10z"></path> <path d="M2660 708 c0 -5 7 -8 15 -8 8 0 84 -2 170 -5 101 -3 155 -2 155 5 0 6 -39 10 -97 10 -54 1 -131 2 -171 3 -39 1 -72 -1 -72 -5z"></path> <path d="M5494 708 c-2 -3 3 -13 11 -21 21 -21 19 -27 -10 -27 -14 0 -25 -5 -25 -11 0 -5 8 -9 18 -8 33 3 47 -3 22 -11 -24 -7 -24 -8 -5 -16 11 -4 29 -19 39 -32 17 -21 20 -22 28 -8 5 9 13 14 18 11 5 -3 11 -1 15 5 3 5 1 10 -6 10 -7 0 -5 6 6 13 10 8 15 19 11 25 -4 7 -1 12 8 12 27 0 17 18 -11 22 l-28 4 25 11 c19 8 21 12 10 16 -23 9 -121 13 -126 5z m71 -28 c3 -5 -1 -10 -9 -10 -9 0 -16 5 -16 10 0 6 4 10 9 10 6 0 13 -4 16 -10z m5 -36 c-6 -6 -6 -14 -2 -19 4 -4 0 -6 -8 -3 -24 7 -25 37 -1 35 14 -1 17 -5 11 -13z"></path> <path d="M1860 700 c0 -5 7 -10 15 -10 8 0 15 5 15 10 0 6 -7 10 -15 10 -8 0 -15 -4 -15 -10z"></path> <path d="M3045 690 c44 -11 65 -11 65 0 0 6 -21 9 -47 9 -43 -1 -45 -2 -18 -9z"></path> <path d="M3125 690 c3 -5 15 -10 26 -10 10 0 19 5 19 10 0 6 -12 10 -26 10 -14 0 -23 -4 -19 -10z"></path> <path d="M3205 690 c-4 -6 7 -10 25 -10 18 0 29 4 25 10 -3 6 -15 10 -25 10 -10 0 -22 -4 -25 -10z"></path> <path d="M3325 680 c3 -5 15 -10 26 -10 10 0 19 5 19 10 0 6 -12 10 -26 10 -14 0 -23 -4 -19 -10z"></path> <path d="M3585 680 c-3 -5 1 -10 9 -10 9 0 16 5 16 10 0 6 -4 10 -9 10 -6 0 -13 -4 -16 -10z"></path> <path d="M3686 681 c-7 -10 23 -20 42 -14 6 3 12 9 12 14 0 12 -47 12 -54 0z"></path> <path d="M3493 669 c14 -8 22 -8 30 0 8 8 3 11 -18 11 -26 -1 -28 -2 -12 -11z"></path> <path d="M788 638 c9 -9 15 -9 24 0 9 9 7 12 -12 12 -19 0 -21 -3 -12 -12z"></path> <path d="M830 640 c0 -13 20 -13 40 0 12 8 9 10 -12 10 -16 0 -28 -4 -28 -10z"></path> <path d="M890 640 c0 -5 11 -10 25 -10 14 0 25 5 25 10 0 6 -11 10 -25 10 -14 0 -25 -4 -25 -10z"></path> <path d="M960 639 c0 -5 23 -9 50 -9 28 0 50 4 50 9 0 6 -22 10 -50 9 -27 0 -50 -4 -50 -9z"></path> <path d="M1100 640 c0 -5 18 -10 41 -10 24 0 38 4 34 10 -3 6 -22 10 -41 10 -19 0 -34 -4 -34 -10z"></path> <path d="M1225 640 c-3 -5 3 -10 14 -10 12 0 21 5 21 10 0 6 -6 10 -14 10 -8 0 -18 -4 -21 -10z"></path> <path d="M1295 639 c-10 -15 3 -25 16 -12 7 7 7 13 1 17 -6 3 -14 1 -17 -5z"></path> <path d="M1460 630 c0 -5 7 -10 15 -10 8 0 15 5 15 10 0 6 -7 10 -15 10 -8 0 -15 -4 -15 -10z"></path> <path d="M1514 629 c-3 -5 6 -9 20 -9 31 0 34 6 6 13 -11 3 -23 1 -26 -4z"></path> <path d="M1630 620 c0 -6 35 -10 91 -10 49 0 88 4 85 9 -8 13 -176 14 -176 1z" class=""></path> <path d="M1865 610 c28 -12 73 -12 80 0 4 6 -14 10 -47 9 -39 0 -48 -3 -33 -9z"></path> <path d="M1980 610 c0 -5 5 -10 10 -10 6 0 10 5 10 10 0 6 -4 10 -10 10 -5 0 -10 -4 -10 -10z"></path> <path d="M2070 605 c0 -9 5 -15 11 -13 6 2 11 8 11 13 0 5 -5 11 -11 13 -6 2 -11 -4 -11 -13z"></path> <path d="M2205 601 c3 -6 27 -11 52 -11 58 0 48 12 -13 18 -31 2 -44 0 -39 -7z"></path> <path d="M2416 601 c-7 -10 63 -23 78 -14 6 4 0 10 -14 14 -36 10 -58 10 -64 0z"></path> <path d="M2524 598 c-6 -9 -1 -10 56 -10 71 0 83 2 76 9 -10 10 -126 10 -132 1z"></path> <path d="M2682 601 c2 -7 7 -12 11 -12 12 1 9 15 -3 20 -7 2 -11 -2 -8 -8z"></path> <path d="M2720 601 c0 -6 17 -11 37 -11 42 0 39 9 -6 16 -18 3 -31 1 -31 -5z"></path> <path d="M2840 600 c-12 -8 -9 -10 13 -11 15 -1 32 -2 39 -3 6 -1 13 4 15 9 4 13 -48 17 -67 5z"></path> <path d="M2940 600 c0 -5 5 -10 10 -10 6 0 10 5 10 10 0 6 -4 10 -10 10 -5 0 -10 -4 -10 -10z"></path> <path d="M846 588 c3 -5 10 -6 15 -3 13 9 11 12 -6 12 -8 0 -12 -4 -9 -9z"></path> <path d="M3015 590 c-7 -12 31 -19 46 -9 8 5 10 9 4 10 -5 0 -18 2 -27 4 -10 2 -20 0 -23 -5z"></path> <path d="M5480 585 c0 -16 16 -20 24 -6 3 5 -1 11 -9 15 -9 3 -15 0 -15 -9z"></path> <path d="M3120 580 c0 -5 16 -10 35 -10 19 0 35 5 35 10 0 6 -16 10 -35 10 -19 0 -35 -4 -35 -10z"></path> <path d="M2120 559 c-14 -4 -23 -8 -20 -9 17 -6 57 -6 69 0 20 11 -18 18 -49 9z"></path> <path d="M3258 562 c-38 -2 -68 -7 -68 -12 0 -12 347 -13 355 -1 6 10 -171 18 -287 13z"></path> <path d="M4194 559 c-2 -4 6 -9 18 -11 16 -2 22 -9 20 -20 -2 -13 4 -18 22 -18 14 0 28 -4 31 -10 7 -11 -5 -13 -42 -10 -40 3 -25 -15 22 -28 25 -7 45 -17 45 -23 0 -6 -7 -9 -15 -6 -8 4 -17 2 -20 -2 -8 -14 63 -23 85 -11 11 6 25 8 30 5 16 -10 12 11 -4 25 -8 6 -25 10 -37 8 -12 -2 -24 2 -26 9 -2 6 7 13 22 15 30 3 30 23 0 24 -37 1 -45 4 -45 14 0 6 10 10 23 10 16 0 18 3 8 9 -11 7 -11 10 3 18 11 6 -9 9 -60 9 -41 0 -77 -3 -80 -7z"></path> <path d="M2200 550 c0 -5 5 -10 10 -10 6 0 10 5 10 10 0 6 -4 10 -10 10 -5 0 -10 -4 -10 -10z"></path> <path d="M2250 550 c0 -5 6 -10 14 -10 8 0 18 5 21 10 3 6 -3 10 -14 10 -12 0 -21 -4 -21 -10z"></path> <path d="M2305 550 c3 -5 12 -10 20 -10 8 0 17 5 20 10 4 6 -5 10 -20 10 -15 0 -24 -4 -20 -10z"></path> <path d="M2375 550 c-3 -5 3 -10 15 -10 12 0 18 5 15 10 -3 6 -10 10 -15 10 -5 0 -12 -4 -15 -10z"></path> <path d="M2430 550 c-12 -8 -10 -10 8 -10 13 0 20 4 17 10 -7 12 -6 12 -25 0z"></path> <path d="M2755 550 c-4 -6 3 -10 14 -10 25 0 27 6 6 13 -8 4 -17 2 -20 -3z" class=""></path> <path d="M2815 550 c-3 -5 3 -10 15 -10 12 0 18 5 15 10 -3 6 -10 10 -15 10 -5 0 -12 -4 -15 -10z"></path> <path d="M2867 548 c-7 -4 39 -8 101 -8 64 0 112 4 112 10 0 11 -196 9 -213 -2z"></path> <path d="M2495 540 c3 -5 12 -7 20 -3 21 7 19 13 -6 13 -11 0 -18 -4 -14 -10z"></path> <path d="M2560 546 c0 -9 30 -14 35 -6 4 6 -3 10 -14 10 -12 0 -21 -2 -21 -4z"></path> <path d="M2630 540 c0 -5 4 -10 9 -10 6 0 13 5 16 10 3 6 -1 10 -9 10 -9 0 -16 -4 -16 -10z"></path> <path d="M2708 543 c7 -3 16 -2 19 1 4 3 -2 6 -13 5 -11 0 -14 -3 -6 -6z"></path> <path d="M5466 541 c-4 -5 -2 -12 3 -15 5 -4 12 -2 15 3 4 5 2 12 -3 15 -5 4 -12 2 -15 -3z"></path> <path d="M5504 538 c-9 -14 20 -20 72 -13 30 3 54 10 54 14 0 10 -120 9 -126 -1z"></path> <path d="M2272 522 c-26 -4 -20 -22 8 -22 20 0 36 16 23 22 -5 2 -18 2 -31 0z"></path> <path d="M5050 522 c0 -6 19 -17 43 -26 l42 -16 -38 4 c-61 8 -39 -16 31 -34 75 -19 103 -40 52 -40 -23 0 -30 3 -22 9 10 6 7 10 -12 13 -33 7 -36 -19 -3 -31 67 -25 195 -19 189 8 -1 7 6 9 20 6 13 -3 32 1 43 9 19 14 17 15 -32 16 -28 0 -55 -5 -59 -11 -4 -8 -8 -8 -13 -1 -4 6 -23 12 -44 14 -20 1 -37 6 -37 11 0 5 13 7 30 4 19 -4 34 -1 44 8 17 18 51 20 40 3 -5 -8 0 -9 17 -5 13 4 32 7 42 7 9 0 17 5 17 11 0 6 -9 9 -20 6 -10 -3 -21 0 -22 5 -3 7 -39 10 -94 9 -81 -2 -151 7 -197 25 -9 3 -17 2 -17 -4z m147 -68 c-3 -3 -12 -4 -19 -1 -8 3 -5 6 6 6 11 1 17 -2 13 -5z"></path> <path d="M2340 510 c0 -5 7 -10 16 -10 8 0 12 5 9 10 -3 6 -10 10 -16 10 -5 0 -9 -4 -9 -10z"></path> <path d="M2393 508 c-2 -5 31 -8 74 -8 43 0 162 -3 266 -7 136 -4 187 -3 187 6 0 15 -517 24 -527 9z" class=""></path> <path d="M5392 511 c-11 -7 -10 -10 3 -15 20 -7 38 1 30 15 -7 11 -16 11 -33 0z"></path> <path d="M2990 499 c0 -5 49 -9 115 -9 65 0 115 4 115 9 0 6 -50 10 -115 10 -66 0 -115 -4 -115 -10z"></path> <path d="M3230 500 c0 -5 5 -10 10 -10 6 0 10 5 10 10 0 6 -4 10 -10 10 -5 0 -10 -4 -10 -10z"></path> <path d="M3260 500 c0 -5 23 -10 50 -10 28 0 50 5 50 10 0 6 -22 10 -50 10 -27 0 -50 -4 -50 -10z"></path> <path d="M3390 500 c0 -5 7 -10 15 -10 8 0 15 5 15 10 0 6 -7 10 -15 10 -8 0 -15 -4 -15 -10z"></path> <path d="M3430 500 c0 -5 7 -10 15 -10 8 0 15 5 15 10 0 6 -7 10 -15 10 -8 0 -15 -4 -15 -10z"></path> <path d="M3490 500 c0 -5 18 -10 40 -10 22 0 40 5 40 10 0 6 -18 10 -40 10 -22 0 -40 -4 -40 -10z"></path> <path d="M3620 500 c0 -6 35 -10 85 -10 50 0 85 4 85 10 0 6 -35 10 -85 10 -50 0 -85 -4 -85 -10z"></path> <path d="M5510 480 c0 -5 21 -10 46 -10 27 0 43 4 39 10 -3 6 -24 10 -46 10 -21 0 -39 -4 -39 -10z"></path> <path d="M2508 473 c-31 -8 -19 -19 22 -20 22 -1 42 2 45 8 4 5 0 9 -9 9 -8 0 -20 2 -28 4 -7 2 -21 2 -30 -1z"></path> <path d="M2702 472 c-7 -2 -10 -7 -7 -12 4 -7 65 -3 73 5 5 5 -54 11 -66 7z"></path> <path d="M3168 472 c-32 -2 -58 -6 -58 -10 0 -4 83 -8 185 -8 102 -1 185 3 185 7 0 5 -48 9 -107 10 -60 0 -117 1 -128 2 -11 1 -46 1 -77 -1z"></path> <path d="M2590 461 c0 -4 11 -6 25 -3 14 2 25 6 25 8 0 2 -11 4 -25 4 -14 0 -25 -4 -25 -9z"></path> <path d="M2840 460 c0 -5 20 -9 45 -8 25 1 45 6 45 10 0 4 -20 8 -45 8 -25 0 -45 -4 -45 -10z" class=""></path> <path d="M2940 466 c0 -9 30 -14 35 -6 4 6 -3 10 -14 10 -12 0 -21 -2 -21 -4z"></path> <path d="M3000 466 c0 -9 30 -14 35 -6 4 6 -3 10 -14 10 -12 0 -21 -2 -21 -4z"></path> <path d="M3060 459 c0 -5 5 -7 10 -4 6 3 10 8 10 11 0 2 -4 4 -10 4 -5 0 -10 -5 -10 -11z"></path> <path d="M3550 459 c0 -10 169 -16 184 -7 12 8 9 9 -106 12 -43 2 -78 -1 -78 -5z"></path> <path d="M2717 423 c-15 -14 -5 -18 33 -15 22 2 40 8 40 13 0 10 -63 12 -73 2z"></path> <path d="M2805 420 c-3 -5 1 -10 9 -10 9 0 16 5 16 10 0 6 -4 10 -9 10 -6 0 -13 -4 -16 -10z"></path> <path d="M2845 420 c-3 -5 1 -10 9 -10 9 0 16 5 16 10 0 6 -4 10 -9 10 -6 0 -13 -4 -16 -10z"></path> <path d="M2889 419 c-9 -6 2 -9 31 -10 25 0 71 -3 104 -5 32 -2 66 1 75 6 11 7 -7 10 -59 10 -41 1 -89 3 -106 4 -18 2 -38 0 -45 -5z"></path> <path d="M5520 420 c0 -5 9 -10 20 -10 11 0 20 5 20 10 0 6 -9 10 -20 10 -11 0 -20 -4 -20 -10z"></path> <path d="M3124 413 c10 -11 126 -11 126 -1 0 4 -30 8 -67 8 -36 0 -63 -3 -59 -7z"></path> <path d="M3265 410 c3 -5 24 -10 46 -10 21 0 39 5 39 10 0 6 -21 10 -46 10 -27 0 -43 -4 -39 -10z"></path> <path d="M3375 410 c3 -5 15 -10 26 -10 10 0 19 5 19 10 0 6 -12 10 -26 10 -14 0 -23 -4 -19 -10z"></path> <path d="M3465 410 c4 -6 11 -8 16 -5 14 9 11 15 -7 15 -8 0 -12 -5 -9 -10z"></path> <path d="M4300 400 c0 -5 5 -10 11 -10 5 0 7 5 4 10 -3 6 -8 10 -11 10 -2 0 -4 -4 -4 -10z"></path> <path d="M4343 393 c-19 -7 -16 -21 7 -28 13 -4 27 1 42 14 l22 21 -30 -1 c-16 0 -35 -3 -41 -6z"></path> <path d="M5082 390 c5 -15 127 -58 166 -59 12 -1 22 4 22 9 0 6 -15 10 -32 10 -24 0 -29 3 -18 10 13 8 13 10 0 14 -8 3 -35 7 -60 9 -25 2 -53 7 -64 12 -14 6 -18 5 -14 -5z"></path> <path d="M5305 369 c-22 -5 -14 -7 33 -8 37 -1 62 3 62 9 0 11 -44 10 -95 -1z"></path> <path d="M4409 346 c-3 -3 -20 -7 -38 -8 -18 -1 -35 -6 -38 -11 -3 -4 18 -7 46 -5 28 2 52 7 52 13 1 11 -15 18 -22 11z"></path> <path d="M5335 330 c3 -5 13 -10 21 -10 8 0 14 5 14 10 0 6 -9 10 -21 10 -11 0 -17 -4 -14 -10z"></path> <path d="M5155 311 c-18 -8 -18 -9 8 -15 67 -15 76 -15 83 -5 4 6 20 9 39 6 17 -3 38 -1 46 4 9 6 -3 9 -36 9 -27 0 -66 2 -85 5 -19 2 -44 1 -55 -4z"></path> <path d="M4410 295 c0 -8 9 -15 20 -15 24 0 27 15 4 24 -22 9 -24 8 -24 -9z"></path> <path d="M5245 270 c-9 -15 46 -33 59 -20 8 8 7 14 -4 20 -20 13 -47 13 -55 0z"></path> <path d="M5165 249 c-4 -6 -5 -13 -2 -16 8 -7 47 7 47 18 0 13 -37 11 -45 -2z"></path> <path d="M5254 209 c-2 -4 4 -13 15 -18 14 -8 22 -7 31 4 14 17 14 17 -18 20 -12 1 -25 -1 -28 -6z"></path>                </g> </svg>